<svg xmlns="http://www.w3.org/2000/svg" xmlns:xlink="http://www.w3.org/1999/xlink" width="48" zoomAndPan="magnify" viewBox="0 0 36 36.000001" height="48" preserveAspectRatio="xMidYMid meet" version="1.0"><defs><clipPath id="b6f6661309"><path d="M 2.222656 10.191406 L 17.546875 10.191406 L 17.546875 24.785156 L 2.222656 24.785156 Z M 2.222656 10.191406 " clip-rule="nonzero"/></clipPath><clipPath id="022197d27f"><path d="M 17.484375 10.191406 L 33.539062 10.191406 L 33.539062 24.785156 L 17.484375 24.785156 Z M 17.484375 10.191406 " clip-rule="nonzero"/></clipPath></defs><g clip-path="url(#b6f6661309)"><path fill="#000000" d="M 10.191406 24.269531 C 10.148438 24.324219 10.105469 24.378906 10.0625 24.429688 C 9.980469 24.519531 9.90625 24.613281 9.820312 24.691406 C 9.707031 24.796875 9.574219 24.832031 9.429688 24.757812 C 9.289062 24.6875 9.210938 24.578125 9.214844 24.40625 C 9.21875 24.253906 9.285156 24.121094 9.34375 23.988281 C 9.433594 23.78125 9.4375 23.777344 9.269531 23.636719 C 8.84375 23.28125 8.410156 22.9375 7.988281 22.574219 C 7.253906 21.933594 6.558594 21.246094 5.917969 20.507812 C 5.308594 19.800781 4.703125 19.09375 4.109375 18.371094 C 3.699219 17.875 3.324219 17.347656 3.027344 16.769531 C 2.660156 16.054688 2.394531 15.308594 2.300781 14.503906 C 2.253906 14.101562 2.234375 13.703125 2.269531 13.304688 C 2.335938 12.632812 2.59375 12.046875 3.148438 11.621094 C 3.371094 11.449219 3.625 11.324219 3.902344 11.265625 C 4 11.242188 4.0625 11.203125 4.117188 11.121094 C 4.328125 10.8125 4.597656 10.574219 4.941406 10.421875 C 5.414062 10.214844 5.890625 10.191406 6.378906 10.351562 C 7.152344 10.601562 7.769531 11.070312 8.257812 11.710938 C 8.796875 12.417969 9.214844 13.195312 9.515625 14.03125 C 9.597656 14.253906 9.675781 14.476562 9.769531 14.742188 C 9.898438 14.511719 10.007812 14.3125 10.113281 14.113281 C 10.425781 13.523438 10.734375 12.933594 11.152344 12.410156 C 11.648438 11.789062 12.226562 11.257812 12.9375 10.894531 C 13.523438 10.597656 14.144531 10.425781 14.804688 10.527344 C 15.667969 10.660156 16.28125 11.144531 16.652344 11.925781 C 16.761719 12.160156 16.832031 12.414062 16.878906 12.667969 C 16.921875 12.882812 16.984375 13.082031 17.089844 13.277344 C 17.414062 13.875 17.476562 14.511719 17.351562 15.175781 C 17.164062 16.207031 16.722656 17.132812 16.128906 17.988281 C 15.546875 18.824219 14.890625 19.601562 14.230469 20.378906 C 13.839844 20.835938 13.449219 21.296875 13.050781 21.75 C 12.523438 22.34375 11.988281 22.929688 11.460938 23.523438 C 11.339844 23.65625 11.234375 23.808594 11.117188 23.945312 C 10.925781 24.167969 10.699219 24.316406 10.390625 24.292969 C 10.332031 24.285156 10.277344 24.277344 10.191406 24.269531 Z M 12.855469 20.902344 C 12.867188 20.890625 12.882812 20.878906 12.894531 20.867188 C 12.910156 20.855469 12.925781 20.84375 12.941406 20.828125 C 13.011719 20.769531 13.085938 20.714844 13.144531 20.652344 C 13.421875 20.363281 13.699219 20.074219 13.96875 19.777344 C 14.660156 19.015625 15.292969 18.214844 15.820312 17.332031 C 16.21875 16.660156 16.554688 15.960938 16.714844 15.1875 C 16.769531 14.933594 16.839844 14.679688 16.8125 14.382812 C 16.789062 14.429688 16.777344 14.445312 16.769531 14.464844 C 16.757812 14.503906 16.746094 14.546875 16.734375 14.585938 C 16.511719 15.382812 16.183594 16.132812 15.757812 16.839844 C 15.417969 17.402344 15.046875 17.945312 14.664062 18.480469 C 14.167969 19.171875 13.648438 19.84375 13.144531 20.523438 C 13.070312 20.621094 13.011719 20.730469 12.945312 20.835938 C 12.929688 20.847656 12.914062 20.859375 12.902344 20.871094 C 12.882812 20.882812 12.867188 20.894531 12.851562 20.910156 C 12.851562 20.910156 12.847656 20.914062 12.847656 20.914062 C 12.847656 20.910156 12.851562 20.90625 12.855469 20.902344 Z M 5.683594 19.308594 L 5.691406 19.316406 L 5.679688 19.3125 C 5.664062 19.300781 5.648438 19.289062 5.636719 19.277344 C 5.628906 19.25 5.632812 19.21875 5.621094 19.199219 C 5.292969 18.667969 4.957031 18.140625 4.640625 17.605469 C 4.183594 16.839844 3.84375 16.027344 3.667969 15.15625 C 3.585938 14.765625 3.550781 14.363281 3.511719 13.96875 C 3.464844 13.492188 3.488281 13.011719 3.5625 12.539062 C 3.597656 12.320312 3.652344 12.105469 3.699219 11.886719 L 3.707031 11.878906 L 3.699219 11.886719 C 3.414062 12.058594 3.265625 12.339844 3.164062 12.636719 C 2.96875 13.21875 2.992188 13.816406 3.097656 14.40625 C 3.230469 15.164062 3.5 15.878906 3.84375 16.5625 C 4.160156 17.199219 4.53125 17.800781 4.941406 18.378906 C 5.160156 18.683594 5.40625 18.972656 5.640625 19.269531 C 5.65625 19.28125 5.667969 19.296875 5.683594 19.308594 Z M 8.269531 13.394531 C 8.269531 13.414062 8.269531 13.429688 8.269531 13.449219 C 8.273438 13.445312 8.28125 13.445312 8.285156 13.445312 C 8.277344 13.429688 8.269531 13.414062 8.261719 13.402344 C 8.132812 13.175781 8.015625 12.945312 7.871094 12.730469 C 7.617188 12.351562 7.355469 11.980469 6.988281 11.695312 C 6.664062 11.449219 6.316406 11.265625 5.917969 11.1875 C 5.710938 11.148438 5.503906 11.15625 5.277344 11.273438 C 5.363281 11.304688 5.421875 11.324219 5.476562 11.34375 C 5.742188 11.453125 6.011719 11.550781 6.269531 11.679688 C 6.972656 12.039062 7.542969 12.566406 8.039062 13.171875 C 8.105469 13.253906 8.191406 13.320312 8.269531 13.394531 Z M 4.839844 11.660156 C 4.675781 11.882812 4.578125 12.128906 4.507812 12.386719 C 4.335938 13 4.34375 13.621094 4.410156 14.246094 C 4.511719 15.195312 4.816406 16.078125 5.257812 16.917969 C 5.703125 17.753906 6.226562 18.542969 6.765625 19.320312 C 7.566406 20.484375 8.449219 21.582031 9.421875 22.609375 C 9.527344 22.722656 9.632812 22.835938 9.75 22.933594 C 9.90625 23.058594 9.96875 23.046875 10.105469 22.894531 C 10.136719 22.859375 10.167969 22.820312 10.199219 22.78125 C 10.449219 22.46875 10.695312 22.15625 10.945312 21.84375 C 11.441406 21.234375 11.9375 20.625 12.425781 20.011719 C 12.992188 19.304688 13.546875 18.589844 14.058594 17.839844 C 14.515625 17.167969 14.964844 16.488281 15.324219 15.757812 C 15.621094 15.148438 15.863281 14.527344 16 13.863281 C 16.082031 13.472656 16.089844 13.085938 15.996094 12.695312 C 15.972656 12.597656 15.921875 12.535156 15.839844 12.484375 C 15.484375 12.269531 15.09375 12.167969 14.683594 12.140625 C 14.183594 12.113281 13.707031 12.203125 13.238281 12.371094 C 12.625 12.59375 12.105469 12.957031 11.636719 13.398438 C 11.5 13.523438 11.363281 13.667969 11.269531 13.828125 C 11.105469 14.097656 10.96875 14.382812 10.832031 14.664062 C 10.625 15.085938 10.445312 15.519531 10.304688 15.96875 C 10.25 16.15625 10.171875 16.339844 10.066406 16.503906 C 9.90625 16.746094 9.542969 16.777344 9.375 16.566406 C 9.246094 16.410156 9.140625 16.238281 9.042969 16.0625 C 8.875 15.769531 8.730469 15.464844 8.558594 15.175781 C 8.09375 14.40625 7.597656 13.660156 6.972656 13.007812 C 6.539062 12.558594 6.074219 12.160156 5.515625 11.878906 C 5.304688 11.773438 5.085938 11.679688 4.839844 11.660156 Z M 15.503906 11.859375 C 15.234375 11.589844 14.90625 11.433594 14.523438 11.421875 C 14.128906 11.40625 13.761719 11.527344 13.40625 11.683594 C 13.355469 11.707031 13.308594 11.742188 13.257812 11.769531 C 14.015625 11.617188 14.757812 11.601562 15.503906 11.859375 Z M 15.503906 11.859375 " fill-opacity="1" fill-rule="nonzero"/></g><g clip-path="url(#022197d27f)"><path fill="#231f20" d="M 31.554688 17.496094 C 31.554688 17.785156 31.554688 18.074219 31.554688 18.359375 C 31.554688 20.359375 31.554688 22.359375 31.554688 24.355469 C 31.554688 24.589844 31.359375 24.785156 31.132812 24.785156 C 30.671875 24.785156 30.210938 24.785156 29.753906 24.785156 C 26.484375 24.785156 23.210938 24.785156 19.945312 24.785156 C 19.714844 24.785156 19.519531 24.589844 19.519531 24.355469 C 19.519531 24.070312 19.519531 23.777344 19.519531 23.492188 C 19.519531 21.496094 19.519531 19.492188 19.519531 17.496094 C 19.519531 16.941406 20.367188 16.945312 20.367188 17.496094 C 20.367188 17.785156 20.367188 18.074219 20.367188 18.359375 C 20.367188 20.214844 20.367188 22.070312 20.367188 23.925781 C 20.6875 23.925781 21.003906 23.925781 21.324219 23.925781 C 24.449219 23.925781 27.578125 23.925781 30.707031 23.925781 C 30.707031 23.78125 30.707031 23.636719 30.707031 23.492188 C 30.707031 21.496094 30.707031 19.492188 30.707031 17.496094 C 30.707031 16.945312 31.554688 16.945312 31.554688 17.496094 Z M 33.132812 17.035156 C 30.996094 15.082031 28.863281 13.132812 26.734375 11.183594 C 26.429688 10.90625 26.128906 10.632812 25.828125 10.355469 C 25.652344 10.195312 25.402344 10.195312 25.226562 10.355469 C 23.085938 12.308594 20.941406 14.257812 18.800781 16.207031 C 18.5 16.484375 18.195312 16.757812 17.890625 17.035156 C 17.484375 17.40625 18.085938 18.011719 18.492188 17.640625 C 20.632812 15.691406 22.773438 13.742188 24.914062 11.792969 C 25.117188 11.609375 25.320312 11.425781 25.523438 11.238281 C 27.554688 13.097656 29.589844 14.957031 31.621094 16.8125 C 31.925781 17.089844 32.226562 17.363281 32.527344 17.640625 C 32.933594 18.007812 33.539062 17.40625 33.132812 17.035156 Z M 29.871094 12.675781 C 29.871094 12.503906 29.871094 12.335938 29.871094 12.164062 C 30.214844 12.164062 30.558594 12.164062 30.90625 12.164062 C 30.90625 12.933594 30.90625 13.699219 30.90625 14.46875 C 30.90625 15.019531 31.753906 15.023438 31.753906 14.46875 C 31.753906 13.558594 31.753906 12.648438 31.753906 11.734375 C 31.753906 11.503906 31.558594 11.308594 31.328125 11.308594 C 30.699219 11.308594 30.074219 11.308594 29.445312 11.308594 C 29.214844 11.308594 29.019531 11.503906 29.019531 11.734375 C 29.019531 12.050781 29.019531 12.363281 29.019531 12.675781 C 29.019531 13.230469 29.871094 13.230469 29.871094 12.675781 Z M 29.871094 12.675781 " fill-opacity="1" fill-rule="nonzero"/></g></svg>