<svg xmlns="http://www.w3.org/2000/svg" xmlns:xlink="http://www.w3.org/1999/xlink" width="300" zoomAndPan="magnify" viewBox="0 0 224.87999 67.499998" height="90" preserveAspectRatio="xMidYMid meet" version="1.0"><defs><g/><clipPath id="0414b7f9bc"><path d="M 0.765625 3 L 223.992188 3 L 223.992188 65 L 0.765625 65 Z M 0.765625 3 " clip-rule="nonzero"/></clipPath><clipPath id="81450f6630"><path d="M 16.617188 9.171875 L 41.609375 9.171875 L 41.609375 33.097656 L 16.617188 33.097656 Z M 16.617188 9.171875 " clip-rule="nonzero"/></clipPath><clipPath id="bcfbca372f"><path d="M 147 9.242188 L 173 9.242188 L 173 33.167969 L 147 33.167969 Z M 147 9.242188 " clip-rule="nonzero"/></clipPath><clipPath id="af48120c76"><path d="M 171 35 L 223.992188 35 L 223.992188 61.324219 L 171 61.324219 Z M 171 35 " clip-rule="nonzero"/></clipPath><clipPath id="9deb1db1f0"><path d="M 0.582031 4 L 21 4 L 21 20 L 0.582031 20 Z M 0.582031 4 " clip-rule="nonzero"/></clipPath><clipPath id="c8c8119895"><path d="M 45 9 L 52.992188 9 L 52.992188 18 L 45 18 Z M 45 9 " clip-rule="nonzero"/></clipPath><clipPath id="5c53d9cb69"><rect x="0" width="53" y="0" height="27"/></clipPath><clipPath id="2a73f47515"><rect x="0" width="224" y="0" height="62"/></clipPath></defs><g clip-path="url(#0414b7f9bc)"><g transform="matrix(1, 0, 0, 1, 0.000000000000000111, 3)"><g clip-path="url(#2a73f47515)"><g clip-path="url(#81450f6630)"><path fill="#000000" d="M 29.675781 32.238281 C 29.605469 32.328125 29.535156 32.417969 29.460938 32.503906 C 29.328125 32.648438 29.207031 32.804688 29.0625 32.933594 C 28.882812 33.101562 28.664062 33.164062 28.429688 33.042969 C 28.195312 32.921875 28.066406 32.746094 28.074219 32.464844 C 28.082031 32.210938 28.191406 32 28.285156 31.78125 C 28.433594 31.441406 28.441406 31.4375 28.160156 31.203125 C 27.464844 30.621094 26.753906 30.054688 26.066406 29.460938 C 24.855469 28.410156 23.71875 27.289062 22.671875 26.078125 C 21.671875 24.917969 20.679688 23.757812 19.707031 22.574219 C 19.03125 21.761719 18.421875 20.894531 17.9375 19.953125 C 17.335938 18.78125 16.898438 17.554688 16.742188 16.234375 C 16.664062 15.582031 16.632812 14.925781 16.695312 14.273438 C 16.800781 13.167969 17.222656 12.210938 18.128906 11.511719 C 18.496094 11.230469 18.910156 11.027344 19.367188 10.929688 C 19.523438 10.894531 19.628906 10.828125 19.71875 10.691406 C 20.066406 10.1875 20.507812 9.796875 21.070312 9.546875 C 21.84375 9.207031 22.621094 9.171875 23.425781 9.433594 C 24.691406 9.84375 25.703125 10.609375 26.503906 11.660156 C 27.386719 12.820312 28.070312 14.089844 28.566406 15.460938 C 28.699219 15.828125 28.828125 16.191406 28.984375 16.628906 C 29.191406 16.246094 29.371094 15.921875 29.546875 15.59375 C 30.054688 14.628906 30.5625 13.660156 31.25 12.804688 C 32.0625 11.785156 33.011719 10.921875 34.175781 10.324219 C 35.132812 9.835938 36.148438 9.554688 37.238281 9.722656 C 38.648438 9.9375 39.65625 10.730469 40.261719 12.015625 C 40.441406 12.394531 40.554688 12.8125 40.632812 13.226562 C 40.699219 13.582031 40.804688 13.910156 40.976562 14.226562 C 41.511719 15.207031 41.609375 16.253906 41.410156 17.335938 C 41.097656 19.027344 40.378906 20.546875 39.402344 21.945312 C 38.449219 23.316406 37.375 24.59375 36.292969 25.863281 C 35.652344 26.617188 35.011719 27.371094 34.359375 28.113281 C 33.496094 29.085938 32.621094 30.046875 31.753906 31.015625 C 31.558594 31.238281 31.382812 31.484375 31.191406 31.710938 C 30.878906 32.074219 30.503906 32.320312 29.996094 32.277344 C 29.90625 32.269531 29.816406 32.253906 29.675781 32.238281 Z M 34.039062 26.722656 C 34.058594 26.703125 34.082031 26.683594 34.105469 26.664062 C 34.132812 26.644531 34.15625 26.625 34.183594 26.605469 C 34.292969 26.507812 34.414062 26.417969 34.515625 26.3125 C 34.96875 25.835938 35.421875 25.363281 35.863281 24.878906 C 36.996094 23.632812 38.03125 22.316406 38.898438 20.871094 C 39.554688 19.769531 40.105469 18.625 40.367188 17.359375 C 40.453125 16.941406 40.566406 16.523438 40.519531 16.039062 C 40.484375 16.117188 40.464844 16.144531 40.453125 16.175781 C 40.433594 16.238281 40.414062 16.304688 40.394531 16.371094 C 40.03125 17.675781 39.492188 18.910156 38.796875 20.0625 C 38.242188 20.984375 37.628906 21.878906 37 22.753906 C 36.191406 23.882812 35.339844 24.984375 34.511719 26.101562 C 34.390625 26.261719 34.296875 26.441406 34.191406 26.613281 C 34.164062 26.632812 34.136719 26.652344 34.113281 26.671875 C 34.085938 26.691406 34.0625 26.710938 34.035156 26.734375 C 34.03125 26.738281 34.027344 26.738281 34.023438 26.742188 C 34.027344 26.738281 34.035156 26.730469 34.039062 26.722656 Z M 22.285156 24.113281 L 22.296875 24.125 L 22.277344 24.117188 C 22.253906 24.097656 22.230469 24.078125 22.207031 24.058594 C 22.199219 24.015625 22.203125 23.964844 22.183594 23.929688 C 21.648438 23.058594 21.097656 22.195312 20.574219 21.320312 C 19.824219 20.070312 19.273438 18.734375 18.980469 17.304688 C 18.851562 16.664062 18.792969 16.007812 18.730469 15.355469 C 18.652344 14.578125 18.691406 13.796875 18.808594 13.019531 C 18.867188 12.660156 18.957031 12.304688 19.03125 11.945312 L 19.046875 11.9375 L 19.039062 11.949219 C 18.5625 12.230469 18.324219 12.6875 18.15625 13.179688 C 17.835938 14.132812 17.878906 15.109375 18.046875 16.078125 C 18.265625 17.320312 18.707031 18.488281 19.269531 19.613281 C 19.792969 20.652344 20.394531 21.640625 21.070312 22.585938 C 21.429688 23.085938 21.832031 23.5625 22.214844 24.046875 C 22.238281 24.070312 22.261719 24.089844 22.285156 24.113281 Z M 26.519531 14.421875 C 26.523438 14.449219 26.523438 14.476562 26.523438 14.507812 C 26.53125 14.503906 26.542969 14.503906 26.550781 14.503906 C 26.535156 14.476562 26.523438 14.453125 26.511719 14.429688 C 26.300781 14.0625 26.109375 13.679688 25.875 13.332031 C 25.457031 12.710938 25.027344 12.101562 24.421875 11.636719 C 23.894531 11.230469 23.324219 10.929688 22.667969 10.804688 C 22.328125 10.738281 21.988281 10.75 21.625 10.945312 C 21.761719 10.996094 21.855469 11.023438 21.945312 11.0625 C 22.378906 11.242188 22.828125 11.398438 23.246094 11.609375 C 24.402344 12.195312 25.332031 13.058594 26.148438 14.054688 C 26.257812 14.191406 26.394531 14.300781 26.519531 14.421875 Z M 20.902344 11.578125 C 20.632812 11.941406 20.472656 12.347656 20.355469 12.765625 C 20.074219 13.769531 20.09375 14.789062 20.203125 15.816406 C 20.367188 17.371094 20.867188 18.820312 21.589844 20.191406 C 22.316406 21.5625 23.179688 22.855469 24.058594 24.128906 C 25.375 26.035156 26.820312 27.835938 28.410156 29.523438 C 28.582031 29.707031 28.757812 29.890625 28.953125 30.050781 C 29.207031 30.257812 29.3125 30.238281 29.53125 29.988281 C 29.585938 29.929688 29.632812 29.867188 29.683594 29.800781 C 30.09375 29.289062 30.5 28.777344 30.914062 28.269531 C 31.71875 27.265625 32.535156 26.265625 33.339844 25.261719 C 34.265625 24.101562 35.171875 22.929688 36.007812 21.703125 C 36.757812 20.601562 37.496094 19.492188 38.082031 18.289062 C 38.570312 17.296875 38.972656 16.273438 39.195312 15.1875 C 39.328125 14.546875 39.339844 13.914062 39.1875 13.273438 C 39.148438 13.113281 39.066406 13.011719 38.929688 12.929688 C 38.347656 12.574219 37.707031 12.410156 37.035156 12.367188 C 36.21875 12.316406 35.433594 12.46875 34.667969 12.742188 C 33.664062 13.105469 32.8125 13.703125 32.042969 14.421875 C 31.816406 14.632812 31.597656 14.867188 31.4375 15.128906 C 31.171875 15.570312 30.949219 16.039062 30.722656 16.503906 C 30.386719 17.195312 30.089844 17.902344 29.859375 18.640625 C 29.765625 18.941406 29.640625 19.246094 29.46875 19.511719 C 29.207031 19.914062 28.613281 19.960938 28.332031 19.617188 C 28.125 19.363281 27.953125 19.078125 27.789062 18.789062 C 27.515625 18.3125 27.28125 17.8125 26.996094 17.339844 C 26.238281 16.074219 25.421875 14.851562 24.394531 13.785156 C 23.691406 13.050781 22.925781 12.394531 22.011719 11.9375 C 21.664062 11.761719 21.304688 11.605469 20.902344 11.578125 Z M 38.378906 11.902344 C 37.9375 11.460938 37.402344 11.207031 36.769531 11.183594 C 36.125 11.160156 35.527344 11.359375 34.945312 11.613281 C 34.859375 11.652344 34.78125 11.707031 34.695312 11.757812 C 35.9375 11.507812 37.15625 11.476562 38.378906 11.902344 Z M 38.378906 11.902344 " fill-opacity="1" fill-rule="nonzero"/></g><g clip-path="url(#bcfbca372f)"><path fill="#231f20" d="M 170.003906 21.21875 C 170.003906 21.6875 170.003906 22.164062 170.003906 22.636719 C 170.003906 25.910156 170.003906 29.191406 170.003906 32.464844 C 170.003906 32.847656 169.679688 33.167969 169.296875 33.167969 C 168.535156 33.167969 167.769531 33.167969 167.007812 33.167969 C 161.582031 33.167969 156.148438 33.167969 150.71875 33.167969 C 150.339844 33.167969 150.015625 32.847656 150.015625 32.464844 C 150.015625 31.996094 150.015625 31.519531 150.015625 31.046875 C 150.015625 27.773438 150.015625 24.492188 150.015625 21.21875 C 150.015625 20.308594 151.425781 20.3125 151.425781 21.21875 C 151.425781 21.6875 151.425781 22.164062 151.425781 22.636719 C 151.425781 25.675781 151.425781 28.71875 151.425781 31.761719 C 151.957031 31.761719 152.480469 31.761719 153.011719 31.761719 C 158.203125 31.761719 163.398438 31.761719 168.59375 31.761719 C 168.59375 31.523438 168.59375 31.285156 168.59375 31.046875 C 168.59375 27.773438 168.59375 24.492188 168.59375 21.21875 C 168.59375 20.3125 170.003906 20.3125 170.003906 21.21875 Z M 172.621094 20.460938 C 169.074219 17.257812 165.535156 14.0625 161.992188 10.867188 C 161.492188 10.414062 160.992188 9.964844 160.488281 9.507812 C 160.195312 9.242188 159.785156 9.242188 159.492188 9.507812 C 155.9375 12.710938 152.378906 15.90625 148.824219 19.101562 C 148.320312 19.554688 147.816406 20.003906 147.3125 20.460938 C 146.632812 21.070312 147.636719 22.0625 148.308594 21.453125 C 151.863281 18.257812 155.417969 15.0625 158.972656 11.867188 C 159.3125 11.566406 159.644531 11.265625 159.984375 10.957031 C 163.359375 14.003906 166.738281 17.054688 170.113281 20.09375 C 170.617188 20.550781 171.117188 21 171.617188 21.453125 C 172.292969 22.058594 173.292969 21.070312 172.621094 20.460938 Z M 167.203125 13.3125 C 167.203125 13.03125 167.203125 12.757812 167.203125 12.476562 C 167.777344 12.476562 168.347656 12.476562 168.921875 12.476562 C 168.921875 13.734375 168.921875 14.996094 168.921875 16.253906 C 168.921875 17.160156 170.332031 17.164062 170.332031 16.253906 C 170.332031 14.761719 170.332031 13.269531 170.332031 11.773438 C 170.332031 11.390625 170.007812 11.070312 169.625 11.070312 C 168.582031 11.070312 167.542969 11.070312 166.5 11.070312 C 166.117188 11.070312 165.792969 11.390625 165.792969 11.773438 C 165.792969 12.285156 165.792969 12.800781 165.792969 13.3125 C 165.789062 14.222656 167.203125 14.222656 167.203125 13.3125 Z M 167.203125 13.3125 " fill-opacity="1" fill-rule="nonzero"/></g><g fill="#000000" fill-opacity="1"><g transform="translate(0.767204, 32.673865)"><g><path d="M 2.484375 0 L 2.484375 -23.0625 L 7.515625 -23.0625 L 7.515625 0 Z M 3.5 0 L 3.5 -4.265625 L 17.203125 -4.265625 L 17.203125 0 Z M 3.5 0 "/></g></g></g><g fill="#000000" fill-opacity="1"><g transform="translate(18.382367, 32.673865)"><g/></g></g><g fill="#000000" fill-opacity="1"><g transform="translate(26.350279, 32.673865)"><g/></g></g><g fill="#000000" fill-opacity="1"><g transform="translate(34.318191, 32.673865)"><g/></g></g><g fill="#000000" fill-opacity="1"><g transform="translate(42.288319, 32.673865)"><g><path d="M 6.46875 0 L 0.34375 -18.3125 L 5.90625 -18.3125 L 9.75 -3.984375 L 10.28125 -3.984375 L 14.15625 -18.3125 L 19.5 -18.3125 L 13.359375 0 Z M 6.46875 0 "/></g></g></g><g fill="#000000" fill-opacity="1"><g transform="translate(61.683891, 32.673865)"><g><path d="M 10.765625 0.484375 C 9.253906 0.484375 7.910156 0.273438 6.734375 -0.140625 C 5.554688 -0.554688 4.554688 -1.164062 3.734375 -1.96875 C 2.921875 -2.78125 2.304688 -3.757812 1.890625 -4.90625 C 1.472656 -6.0625 1.265625 -7.375 1.265625 -8.84375 C 1.265625 -10.289062 1.46875 -11.625 1.875 -12.84375 C 2.28125 -14.070312 2.875 -15.132812 3.65625 -16.03125 C 4.4375 -16.925781 5.394531 -17.617188 6.53125 -18.109375 C 7.675781 -18.597656 8.972656 -18.84375 10.421875 -18.84375 C 11.835938 -18.84375 13.085938 -18.609375 14.171875 -18.140625 C 15.253906 -17.671875 16.15625 -16.984375 16.875 -16.078125 C 17.601562 -15.171875 18.132812 -14.0625 18.46875 -12.75 C 18.8125 -11.445312 18.925781 -9.945312 18.8125 -8.25 L 4.515625 -8.140625 L 4.515625 -10.90625 L 15.828125 -11.015625 L 14.15625 -9.578125 C 14.320312 -10.804688 14.242188 -11.816406 13.921875 -12.609375 C 13.609375 -13.410156 13.144531 -13.992188 12.53125 -14.359375 C 11.914062 -14.734375 11.222656 -14.921875 10.453125 -14.921875 C 9.566406 -14.921875 8.789062 -14.6875 8.125 -14.21875 C 7.457031 -13.757812 6.941406 -13.078125 6.578125 -12.171875 C 6.222656 -11.273438 6.046875 -10.203125 6.046875 -8.953125 C 6.046875 -6.972656 6.476562 -5.519531 7.34375 -4.59375 C 8.207031 -3.675781 9.347656 -3.21875 10.765625 -3.21875 C 11.421875 -3.21875 11.972656 -3.300781 12.421875 -3.46875 C 12.878906 -3.644531 13.253906 -3.875 13.546875 -4.15625 C 13.835938 -4.4375 14.0625 -4.75 14.21875 -5.09375 C 14.382812 -5.445312 14.515625 -5.8125 14.609375 -6.1875 L 19.015625 -5.28125 C 18.847656 -4.414062 18.5625 -3.632812 18.15625 -2.9375 C 17.75 -2.238281 17.210938 -1.628906 16.546875 -1.109375 C 15.878906 -0.597656 15.066406 -0.207031 14.109375 0.0625 C 13.160156 0.34375 12.046875 0.484375 10.765625 0.484375 Z M 10.765625 0.484375 "/></g></g></g><g fill="#000000" fill-opacity="1"><g transform="translate(81.848297, 32.673865)"><g><path d="M 2.234375 0 L 2.234375 -24.921875 L 7.203125 -24.921875 L 7.203125 0 Z M 2.234375 0 "/></g></g></g><g fill="#000000" fill-opacity="1"><g transform="translate(91.179147, 32.673865)"><g><path d="M 9.15625 6.25 C 8.226562 6.25 7.285156 6.164062 6.328125 6 C 5.367188 5.84375 4.460938 5.585938 3.609375 5.234375 C 2.765625 4.890625 2.050781 4.4375 1.46875 3.875 L 2.859375 -0.484375 C 3.609375 0.304688 4.535156 0.882812 5.640625 1.25 C 6.753906 1.625 7.84375 1.8125 8.90625 1.8125 C 10.050781 1.8125 10.988281 1.617188 11.71875 1.234375 C 12.457031 0.859375 13.03125 0.335938 13.4375 -0.328125 C 13.84375 -0.992188 14.140625 -1.765625 14.328125 -2.640625 C 14.515625 -3.515625 14.617188 -4.441406 14.640625 -5.421875 L 14.8125 -8.28125 L 14.09375 -8.28125 C 13.875 -6.71875 13.503906 -5.445312 12.984375 -4.46875 C 12.460938 -3.488281 11.796875 -2.769531 10.984375 -2.3125 C 10.179688 -1.863281 9.234375 -1.640625 8.140625 -1.640625 C 6.953125 -1.640625 5.96875 -1.878906 5.1875 -2.359375 C 4.40625 -2.835938 3.804688 -3.453125 3.390625 -4.203125 C 2.972656 -4.960938 2.664062 -5.757812 2.46875 -6.59375 C 2.269531 -7.4375 2.148438 -8.226562 2.109375 -8.96875 C 2.078125 -9.71875 2.0625 -10.304688 2.0625 -10.734375 L 2.0625 -18.34375 L 7.09375 -18.34375 L 7.09375 -12.15625 C 7.09375 -11.695312 7.101562 -11.179688 7.125 -10.609375 C 7.15625 -10.035156 7.207031 -9.46875 7.28125 -8.90625 C 7.363281 -8.351562 7.515625 -7.835938 7.734375 -7.359375 C 7.960938 -6.878906 8.257812 -6.5 8.625 -6.21875 C 9 -5.9375 9.476562 -5.796875 10.0625 -5.796875 C 10.832031 -5.796875 11.441406 -6.03125 11.890625 -6.5 C 12.347656 -6.96875 12.707031 -7.550781 12.96875 -8.25 C 13.226562 -8.945312 13.398438 -9.664062 13.484375 -10.40625 C 13.578125 -11.15625 13.640625 -11.800781 13.671875 -12.34375 L 13.671875 -18.34375 L 18.703125 -18.34375 L 18.703125 -5.203125 C 18.703125 -4.554688 18.664062 -3.828125 18.59375 -3.015625 C 18.519531 -2.210938 18.382812 -1.378906 18.1875 -0.515625 C 17.988281 0.335938 17.675781 1.164062 17.25 1.96875 C 16.820312 2.78125 16.253906 3.507812 15.546875 4.15625 C 14.847656 4.8125 13.972656 5.320312 12.921875 5.6875 C 11.878906 6.0625 10.625 6.25 9.15625 6.25 Z M 9.15625 6.25 "/></g></g></g><g fill="#000000" fill-opacity="1"><g transform="translate(122.521047, 32.665468)"><g><path d="M 17.46875 0 L 17.46875 -23 L 22.453125 -23 L 22.453125 0 Z M 2.46875 0 L 2.46875 -23 L 7.5 -23 L 7.5 0 Z M 5.46875 -9.59375 L 5.46875 -13.703125 L 19.484375 -13.703125 L 19.484375 -9.59375 Z M 5.46875 -9.59375 "/></g></g></g><g fill="#000000" fill-opacity="1"><g transform="translate(147.448479, 32.665468)"><g/></g></g><g fill="#000000" fill-opacity="1"><g transform="translate(155.39685, 32.665468)"><g/></g></g><g fill="#000000" fill-opacity="1"><g transform="translate(163.34522, 32.665468)"><g/></g></g><g fill="#000000" fill-opacity="1"><g transform="translate(171.294905, 32.665468)"><g><path d="M 2.234375 0 L 2.234375 -18.296875 L 6.28125 -18.296875 L 6.234375 -12.625 L 6.90625 -12.625 C 7.207031 -14.039062 7.617188 -15.203125 8.140625 -16.109375 C 8.660156 -17.015625 9.300781 -17.6875 10.0625 -18.125 C 10.832031 -18.570312 11.734375 -18.796875 12.765625 -18.796875 C 13.578125 -18.796875 14.285156 -18.65625 14.890625 -18.375 C 15.492188 -18.09375 16.003906 -17.695312 16.421875 -17.1875 C 16.835938 -16.675781 17.164062 -16.035156 17.40625 -15.265625 C 17.65625 -14.503906 17.816406 -13.632812 17.890625 -12.65625 L 18.4375 -12.65625 C 18.757812 -14.070312 19.210938 -15.234375 19.796875 -16.140625 C 20.378906 -17.046875 21.085938 -17.710938 21.921875 -18.140625 C 22.765625 -18.578125 23.6875 -18.796875 24.6875 -18.796875 C 25.84375 -18.796875 26.796875 -18.554688 27.546875 -18.078125 C 28.304688 -17.597656 28.894531 -16.976562 29.3125 -16.21875 C 29.726562 -15.46875 30.039062 -14.664062 30.25 -13.8125 C 30.46875 -12.96875 30.597656 -12.144531 30.640625 -11.34375 C 30.691406 -10.539062 30.71875 -9.882812 30.71875 -9.375 L 30.71875 0 L 25.6875 0 L 25.6875 -8.78125 C 25.6875 -9.226562 25.671875 -9.769531 25.640625 -10.40625 C 25.609375 -11.039062 25.5 -11.664062 25.3125 -12.28125 C 25.125 -12.90625 24.828125 -13.425781 24.421875 -13.84375 C 24.015625 -14.257812 23.453125 -14.46875 22.734375 -14.46875 C 21.984375 -14.46875 21.320312 -14.203125 20.75 -13.671875 C 20.1875 -13.148438 19.75 -12.429688 19.4375 -11.515625 C 19.125 -10.597656 18.953125 -9.515625 18.921875 -8.265625 L 18.921875 0 L 14.015625 0 L 14.015625 -8.609375 C 14.015625 -9.023438 13.992188 -9.554688 13.953125 -10.203125 C 13.921875 -10.859375 13.8125 -11.507812 13.625 -12.15625 C 13.4375 -12.8125 13.140625 -13.359375 12.734375 -13.796875 C 12.328125 -14.242188 11.742188 -14.46875 10.984375 -14.46875 C 10.234375 -14.46875 9.578125 -14.203125 9.015625 -13.671875 C 8.460938 -13.148438 8.035156 -12.425781 7.734375 -11.5 C 7.429688 -10.570312 7.269531 -9.492188 7.25 -8.265625 L 7.25 0 Z M 2.234375 0 "/></g></g></g><g fill="#000000" fill-opacity="1"><g transform="translate(203.994779, 32.665468)"><g><path d="M 10.734375 0.484375 C 9.222656 0.484375 7.878906 0.273438 6.703125 -0.140625 C 5.535156 -0.554688 4.546875 -1.164062 3.734375 -1.96875 C 2.921875 -2.769531 2.300781 -3.742188 1.875 -4.890625 C 1.457031 -6.046875 1.25 -7.351562 1.25 -8.8125 C 1.25 -10.257812 1.453125 -11.59375 1.859375 -12.8125 C 2.265625 -14.03125 2.859375 -15.085938 3.640625 -15.984375 C 4.421875 -16.878906 5.378906 -17.570312 6.515625 -18.0625 C 7.660156 -18.550781 8.953125 -18.796875 10.390625 -18.796875 C 11.804688 -18.796875 13.050781 -18.5625 14.125 -18.09375 C 15.207031 -17.625 16.109375 -16.9375 16.828125 -16.03125 C 17.554688 -15.125 18.085938 -14.019531 18.421875 -12.71875 C 18.753906 -11.414062 18.863281 -9.921875 18.75 -8.234375 L 4.5 -8.125 L 4.5 -10.875 L 15.796875 -10.984375 L 14.125 -9.546875 C 14.28125 -10.785156 14.203125 -11.796875 13.890625 -12.578125 C 13.578125 -13.367188 13.113281 -13.953125 12.5 -14.328125 C 11.882812 -14.703125 11.191406 -14.890625 10.421875 -14.890625 C 9.535156 -14.890625 8.757812 -14.65625 8.09375 -14.1875 C 7.4375 -13.71875 6.925781 -13.035156 6.5625 -12.140625 C 6.207031 -11.253906 6.03125 -10.179688 6.03125 -8.921875 C 6.03125 -6.953125 6.457031 -5.503906 7.3125 -4.578125 C 8.175781 -3.660156 9.316406 -3.203125 10.734375 -3.203125 C 11.390625 -3.203125 11.941406 -3.289062 12.390625 -3.46875 C 12.847656 -3.644531 13.21875 -3.867188 13.5 -4.140625 C 13.789062 -4.421875 14.019531 -4.734375 14.1875 -5.078125 C 14.351562 -5.429688 14.484375 -5.796875 14.578125 -6.171875 L 18.96875 -5.265625 C 18.800781 -4.398438 18.515625 -3.617188 18.109375 -2.921875 C 17.703125 -2.222656 17.164062 -1.617188 16.5 -1.109375 C 15.84375 -0.597656 15.035156 -0.207031 14.078125 0.0625 C 13.128906 0.34375 12.015625 0.484375 10.734375 0.484375 Z M 10.734375 0.484375 "/></g></g></g><g clip-path="url(#af48120c76)"><g transform="matrix(1, 0, 0, 1, 171, 35)"><g clip-path="url(#5c53d9cb69)"><g clip-path="url(#9deb1db1f0)"><g fill="#000000" fill-opacity="1"><g transform="translate(1.529577, 17.320662)"><g><path d="M 13.109375 2.296875 C 12.554688 2.296875 12.082031 2.078125 11.6875 1.640625 C 11.300781 1.203125 10.960938 0.644531 10.671875 -0.03125 C 10.390625 -0.71875 10.140625 -1.425781 9.921875 -2.15625 C 9.410156 -3.8125 9.195312 -4.796875 9.28125 -5.109375 C 8.476562 -4.035156 7.78125 -3.132812 7.1875 -2.40625 C 6.601562 -1.6875 6.125 -1.148438 5.75 -0.796875 C 4.132812 0.765625 2.5 1.546875 0.84375 1.546875 C 0.351562 1.546875 -0.0507812 1.441406 -0.375 1.234375 C -0.695312 1.023438 -0.859375 0.679688 -0.859375 0.203125 C -0.859375 -0.0976562 -0.789062 -0.421875 -0.65625 -0.765625 C -0.519531 -1.117188 -0.347656 -1.453125 -0.140625 -1.765625 C 0.0664062 -2.078125 0.269531 -2.335938 0.46875 -2.546875 C 0.925781 -2.992188 1.304688 -3.21875 1.609375 -3.21875 C 1.660156 -3.21875 1.6875 -3.207031 1.6875 -3.1875 C 1.6875 -3.113281 1.582031 -2.992188 1.375 -2.828125 C 0.894531 -2.453125 0.5 -2.015625 0.1875 -1.515625 C -0.125 -1.015625 -0.28125 -0.554688 -0.28125 -0.140625 C -0.28125 0.617188 0.253906 0.976562 1.328125 0.9375 C 3.097656 0.875 5.550781 -1.257812 8.6875 -5.46875 C 8.863281 -5.695312 9.015625 -5.859375 9.140625 -5.953125 L 8.8125 -6.078125 C 8.632812 -6.015625 8.492188 -5.984375 8.390625 -5.984375 C 8.097656 -5.984375 7.953125 -6.097656 7.953125 -6.328125 C 7.953125 -6.640625 8.164062 -6.84375 8.59375 -6.9375 C 8.851562 -7.007812 9.1875 -6.894531 9.59375 -6.59375 C 10.125 -7.195312 10.640625 -7.769531 11.140625 -8.3125 C 11.640625 -8.863281 12.09375 -9.3125 12.5 -9.65625 C 12.914062 -10.007812 13.25 -10.1875 13.5 -10.1875 C 13.832031 -10.1875 14 -10.035156 14 -9.734375 C 14 -9.609375 13.96875 -9.476562 13.90625 -9.34375 C 13.84375 -9.21875 13.769531 -9.15625 13.6875 -9.15625 C 13.601562 -9.144531 13.5625 -9.1875 13.5625 -9.28125 C 13.5625 -9.351562 13.601562 -9.4375 13.6875 -9.53125 L 13.6875 -9.609375 C 13.6875 -9.691406 13.660156 -9.753906 13.609375 -9.796875 C 13.242188 -10.035156 12.144531 -8.878906 10.3125 -6.328125 C 10.46875 -6.316406 10.628906 -6.304688 10.796875 -6.296875 C 10.960938 -6.285156 11.144531 -6.28125 11.34375 -6.28125 C 14.519531 -6.28125 16.503906 -7.101562 17.296875 -8.75 C 17.460938 -9.101562 17.546875 -9.429688 17.546875 -9.734375 C 17.546875 -10.335938 17.265625 -10.867188 16.703125 -11.328125 C 16.191406 -11.734375 15.519531 -12.007812 14.6875 -12.15625 C 13.863281 -12.300781 13.039062 -12.375 12.21875 -12.375 C 10.40625 -12.375 8.46875 -11.875 6.40625 -10.875 C 3.914062 -9.65625 2.671875 -8.222656 2.671875 -6.578125 C 2.671875 -6.046875 3.019531 -5.78125 3.71875 -5.78125 C 4.363281 -5.78125 5.085938 -6.035156 5.890625 -6.546875 C 6.585938 -7.015625 7.066406 -7.488281 7.328125 -7.96875 C 7.429688 -8.144531 7.523438 -8.234375 7.609375 -8.234375 C 7.703125 -8.234375 7.726562 -8.179688 7.6875 -8.078125 C 7.425781 -7.304688 6.84375 -6.648438 5.9375 -6.109375 C 5.0625 -5.566406 4.15625 -5.296875 3.21875 -5.296875 C 2.113281 -5.296875 1.601562 -5.65625 1.6875 -6.375 C 1.894531 -8.164062 3 -9.691406 5 -10.953125 C 6.976562 -12.203125 9.375 -12.828125 12.1875 -12.828125 C 13.25 -12.828125 14.285156 -12.726562 15.296875 -12.53125 C 16.304688 -12.34375 17.125 -11.988281 17.75 -11.46875 C 18.40625 -10.914062 18.734375 -10.269531 18.734375 -9.53125 C 18.734375 -9.21875 18.660156 -8.875 18.515625 -8.5 C 18.273438 -7.96875 17.914062 -7.515625 17.4375 -7.140625 C 16.957031 -6.765625 16.398438 -6.457031 15.765625 -6.21875 C 15.140625 -5.988281 14.476562 -5.816406 13.78125 -5.703125 C 13.082031 -5.597656 12.40625 -5.546875 11.75 -5.546875 C 11.394531 -5.546875 11.054688 -5.554688 10.734375 -5.578125 C 10.410156 -5.609375 10.113281 -5.65625 9.84375 -5.71875 C 9.925781 -5.457031 10.066406 -4.984375 10.265625 -4.296875 C 10.472656 -3.609375 10.734375 -2.71875 11.046875 -1.625 C 11.148438 -1.320312 11.285156 -0.992188 11.453125 -0.640625 C 11.628906 -0.285156 11.828125 0.046875 12.046875 0.359375 C 12.265625 0.679688 12.5 0.941406 12.75 1.140625 C 13 1.347656 13.253906 1.453125 13.515625 1.453125 C 14.097656 1.453125 14.578125 0.875 14.953125 -0.28125 C 15.023438 -0.5625 15.101562 -0.703125 15.1875 -0.703125 C 15.25 -0.703125 15.3125 -0.570312 15.375 -0.3125 C 15.382812 -0.269531 15.390625 -0.210938 15.390625 -0.140625 C 15.390625 0.210938 15.195312 0.648438 14.8125 1.171875 C 14.300781 1.921875 13.734375 2.296875 13.109375 2.296875 Z M 13.109375 2.296875 "/></g></g></g></g><g fill="#000000" fill-opacity="1"><g transform="translate(16.975556, 17.320662)"><g><path d="M 1.046875 0.265625 C 0.609375 0.265625 0.210938 0.125 -0.140625 -0.15625 C -0.492188 -0.4375 -0.671875 -0.8125 -0.671875 -1.28125 C -0.671875 -2.25 -0.078125 -3.359375 1.109375 -4.609375 C 2.328125 -5.867188 3.414062 -6.5 4.375 -6.5 C 4.6875 -6.5 4.941406 -6.410156 5.140625 -6.234375 C 5.335938 -6.066406 5.4375 -5.859375 5.4375 -5.609375 C 5.4375 -4.835938 4.828125 -4.082031 3.609375 -3.34375 C 2.535156 -2.6875 1.628906 -2.359375 0.890625 -2.359375 C 0.773438 -2.359375 0.675781 -2.375 0.59375 -2.40625 C 0.382812 -2.03125 0.28125 -1.640625 0.28125 -1.234375 C 0.28125 -0.523438 0.617188 -0.171875 1.296875 -0.171875 C 1.984375 -0.171875 2.863281 -0.628906 3.9375 -1.546875 C 4.78125 -2.210938 5.492188 -2.921875 6.078125 -3.671875 C 6.203125 -3.835938 6.3125 -3.921875 6.40625 -3.921875 C 6.488281 -3.921875 6.53125 -3.878906 6.53125 -3.796875 C 6.53125 -3.710938 6.476562 -3.597656 6.375 -3.453125 C 5.988281 -2.941406 5.578125 -2.472656 5.140625 -2.046875 C 4.703125 -1.628906 4.226562 -1.242188 3.71875 -0.890625 C 2.664062 -0.117188 1.773438 0.265625 1.046875 0.265625 Z M 1.171875 -2.8125 C 1.691406 -2.8125 2.367188 -3.070312 3.203125 -3.59375 C 3.472656 -3.789062 3.742188 -4.007812 4.015625 -4.25 C 4.285156 -4.488281 4.503906 -4.726562 4.671875 -4.96875 C 4.847656 -5.21875 4.9375 -5.4375 4.9375 -5.625 C 4.9375 -5.800781 4.789062 -5.890625 4.5 -5.890625 C 4.09375 -5.890625 3.519531 -5.582031 2.78125 -4.96875 C 2.414062 -4.664062 2.066406 -4.335938 1.734375 -3.984375 C 1.410156 -3.628906 1.132812 -3.253906 0.90625 -2.859375 C 0.988281 -2.828125 1.078125 -2.8125 1.171875 -2.8125 Z M 1.171875 -2.8125 "/></g></g></g><g fill="#000000" fill-opacity="1"><g transform="translate(22.254302, 17.320662)"><g><path d="M 1.5625 0.265625 C 1.125 0.265625 0.722656 0.125 0.359375 -0.15625 C 0.00390625 -0.4375 -0.171875 -0.8125 -0.171875 -1.28125 C -0.171875 -2.25 0.425781 -3.359375 1.625 -4.609375 C 2.84375 -5.867188 3.929688 -6.5 4.890625 -6.5 C 5.222656 -6.5 5.484375 -6.410156 5.671875 -6.234375 C 5.859375 -6.066406 5.953125 -5.859375 5.953125 -5.609375 C 5.953125 -5.265625 5.875 -4.953125 5.71875 -4.671875 C 5.519531 -4.304688 5.242188 -4.125 4.890625 -4.125 C 4.535156 -4.125 4.359375 -4.234375 4.359375 -4.453125 C 4.359375 -4.609375 4.445312 -4.835938 4.625 -5.140625 C 4.8125 -5.453125 4.90625 -5.613281 4.90625 -5.625 C 4.90625 -5.65625 4.882812 -5.671875 4.84375 -5.671875 C 4.46875 -5.628906 3.9375 -5.347656 3.25 -4.828125 C 2.945312 -4.597656 2.679688 -4.378906 2.453125 -4.171875 C 2.222656 -3.960938 2.039062 -3.765625 1.90625 -3.578125 L 1.109375 -2.40625 C 1.023438 -2.28125 0.9375 -2.066406 0.84375 -1.765625 C 0.757812 -1.460938 0.71875 -1.238281 0.71875 -1.09375 C 0.71875 -0.8125 0.8125 -0.582031 1 -0.40625 C 1.1875 -0.226562 1.421875 -0.140625 1.703125 -0.140625 C 2.390625 -0.140625 3.296875 -0.585938 4.421875 -1.484375 C 5.328125 -2.191406 6.050781 -2.910156 6.59375 -3.640625 C 6.664062 -3.722656 6.75 -3.765625 6.84375 -3.765625 C 6.9375 -3.765625 6.984375 -3.734375 6.984375 -3.671875 C 6.984375 -3.628906 6.953125 -3.5625 6.890625 -3.46875 C 6.128906 -2.46875 5.242188 -1.609375 4.234375 -0.890625 C 3.148438 -0.117188 2.257812 0.265625 1.5625 0.265625 Z M 1.5625 0.265625 "/></g></g></g><g fill="#000000" fill-opacity="1"><g transform="translate(28.067084, 17.320662)"><g><path d="M 4.546875 -7.0625 C 4.304688 -7.0625 4.097656 -7.132812 3.921875 -7.28125 C 3.753906 -7.4375 3.671875 -7.613281 3.671875 -7.8125 C 3.671875 -8.195312 3.929688 -8.390625 4.453125 -8.390625 C 4.648438 -8.390625 4.84375 -8.320312 5.03125 -8.1875 C 5.226562 -8.0625 5.328125 -7.898438 5.328125 -7.703125 C 5.328125 -7.535156 5.234375 -7.382812 5.046875 -7.25 C 4.867188 -7.125 4.703125 -7.0625 4.546875 -7.0625 Z M 0.734375 0.21875 C 0.429688 0.21875 0.179688 0.117188 -0.015625 -0.078125 C -0.210938 -0.273438 -0.3125 -0.625 -0.3125 -1.125 C -0.3125 -1.414062 -0.242188 -1.75 -0.109375 -2.125 C 0.015625 -2.5 0.175781 -2.878906 0.375 -3.265625 C 0.570312 -3.648438 0.769531 -3.992188 0.96875 -4.296875 C 1.726562 -5.546875 2.359375 -6.175781 2.859375 -6.1875 C 2.984375 -6.1875 3.132812 -6.132812 3.3125 -6.03125 C 3.488281 -5.925781 3.578125 -5.8125 3.578125 -5.6875 C 3.578125 -5.6875 3.054688 -5.015625 2.015625 -3.671875 C 0.984375 -2.347656 0.46875 -1.40625 0.46875 -0.84375 C 0.46875 -0.40625 0.640625 -0.1875 0.984375 -0.1875 C 1.203125 -0.1875 1.484375 -0.273438 1.828125 -0.453125 C 2.179688 -0.640625 2.550781 -0.878906 2.9375 -1.171875 C 3.320312 -1.460938 3.6875 -1.769531 4.03125 -2.09375 C 4.382812 -2.425781 4.671875 -2.726562 4.890625 -3 C 5.023438 -3.175781 5.144531 -3.296875 5.25 -3.359375 C 5.351562 -3.429688 5.414062 -3.46875 5.4375 -3.46875 C 5.5 -3.46875 5.53125 -3.425781 5.53125 -3.34375 C 5.53125 -3.28125 5.445312 -3.144531 5.28125 -2.9375 C 5.125 -2.726562 4.910156 -2.488281 4.640625 -2.21875 C 4.316406 -1.882812 3.953125 -1.523438 3.546875 -1.140625 C 3.148438 -0.765625 2.71875 -0.441406 2.25 -0.171875 C 1.789062 0.0859375 1.285156 0.21875 0.734375 0.21875 Z M 0.734375 0.21875 "/></g></g></g><g fill="#000000" fill-opacity="1"><g transform="translate(32.709094, 17.320662)"><g><path d="M -1.1875 3.890625 C -1.769531 3.566406 -2.0625 2.96875 -2.0625 2.09375 C -2.0625 1.144531 -1.285156 -0.46875 0.265625 -2.75 C 1.742188 -4.957031 2.769531 -6.148438 3.34375 -6.328125 C 3.40625 -6.335938 3.453125 -6.347656 3.484375 -6.359375 C 3.523438 -6.367188 3.566406 -6.375 3.609375 -6.375 C 3.847656 -6.375 3.96875 -6.117188 3.96875 -5.609375 C 4.0625 -5.703125 4.226562 -5.789062 4.46875 -5.875 C 4.707031 -5.96875 4.953125 -6.039062 5.203125 -6.09375 C 5.460938 -6.15625 5.65625 -6.191406 5.78125 -6.203125 C 6.332031 -6.234375 6.796875 -6.097656 7.171875 -5.796875 C 7.554688 -5.503906 7.75 -5.117188 7.75 -4.640625 C 7.75 -3.535156 7.082031 -2.460938 5.75 -1.421875 C 4.539062 -0.472656 3.472656 0 2.546875 0 C 1.929688 0 1.507812 -0.0351562 1.28125 -0.109375 C 0.945312 -0.203125 0.609375 -0.453125 0.265625 -0.859375 C 0.117188 -0.734375 -0.0390625 -0.523438 -0.21875 -0.234375 C -0.40625 0.0546875 -0.578125 0.375 -0.734375 0.71875 C -0.890625 1.070312 -1.019531 1.421875 -1.125 1.765625 C -1.226562 2.109375 -1.28125 2.394531 -1.28125 2.625 C -1.28125 2.863281 -1.234375 3.0625 -1.140625 3.21875 C -1.046875 3.375 -0.960938 3.519531 -0.890625 3.65625 C -0.890625 3.664062 -0.882812 3.675781 -0.875 3.6875 C -0.863281 3.695312 -0.859375 3.703125 -0.859375 3.703125 C -0.859375 3.765625 -0.894531 3.816406 -0.96875 3.859375 C -1.050781 3.910156 -1.125 3.921875 -1.1875 3.890625 Z M 2.28125 -0.578125 C 3.050781 -0.578125 3.9375 -0.96875 4.9375 -1.75 C 6.113281 -2.675781 6.703125 -3.707031 6.703125 -4.84375 C 6.703125 -5.363281 6.378906 -5.625 5.734375 -5.625 C 5.140625 -5.625 4.59375 -5.492188 4.09375 -5.234375 C 3.957031 -5.179688 3.734375 -5.003906 3.421875 -4.703125 C 3.109375 -4.398438 2.703125 -3.988281 2.203125 -3.46875 C 1.117188 -2.34375 0.578125 -1.625 0.578125 -1.3125 C 0.578125 -1.0625 0.800781 -0.863281 1.25 -0.71875 C 1.550781 -0.625 1.894531 -0.578125 2.28125 -0.578125 Z M 2.28125 -0.578125 "/></g></g></g><g fill="#000000" fill-opacity="1"><g transform="translate(40.452624, 17.320662)"><g><path d="M 1.046875 0.265625 C 0.609375 0.265625 0.210938 0.125 -0.140625 -0.15625 C -0.492188 -0.4375 -0.671875 -0.8125 -0.671875 -1.28125 C -0.671875 -2.25 -0.078125 -3.359375 1.109375 -4.609375 C 2.328125 -5.867188 3.414062 -6.5 4.375 -6.5 C 4.6875 -6.5 4.941406 -6.410156 5.140625 -6.234375 C 5.335938 -6.066406 5.4375 -5.859375 5.4375 -5.609375 C 5.4375 -4.835938 4.828125 -4.082031 3.609375 -3.34375 C 2.535156 -2.6875 1.628906 -2.359375 0.890625 -2.359375 C 0.773438 -2.359375 0.675781 -2.375 0.59375 -2.40625 C 0.382812 -2.03125 0.28125 -1.640625 0.28125 -1.234375 C 0.28125 -0.523438 0.617188 -0.171875 1.296875 -0.171875 C 1.984375 -0.171875 2.863281 -0.628906 3.9375 -1.546875 C 4.78125 -2.210938 5.492188 -2.921875 6.078125 -3.671875 C 6.203125 -3.835938 6.3125 -3.921875 6.40625 -3.921875 C 6.488281 -3.921875 6.53125 -3.878906 6.53125 -3.796875 C 6.53125 -3.710938 6.476562 -3.597656 6.375 -3.453125 C 5.988281 -2.941406 5.578125 -2.472656 5.140625 -2.046875 C 4.703125 -1.628906 4.226562 -1.242188 3.71875 -0.890625 C 2.664062 -0.117188 1.773438 0.265625 1.046875 0.265625 Z M 1.171875 -2.8125 C 1.691406 -2.8125 2.367188 -3.070312 3.203125 -3.59375 C 3.472656 -3.789062 3.742188 -4.007812 4.015625 -4.25 C 4.285156 -4.488281 4.503906 -4.726562 4.671875 -4.96875 C 4.847656 -5.21875 4.9375 -5.4375 4.9375 -5.625 C 4.9375 -5.800781 4.789062 -5.890625 4.5 -5.890625 C 4.09375 -5.890625 3.519531 -5.582031 2.78125 -4.96875 C 2.414062 -4.664062 2.066406 -4.335938 1.734375 -3.984375 C 1.410156 -3.628906 1.132812 -3.253906 0.90625 -2.859375 C 0.988281 -2.828125 1.078125 -2.8125 1.171875 -2.8125 Z M 1.171875 -2.8125 "/></g></g></g><g clip-path="url(#c8c8119895)"><g fill="#000000" fill-opacity="1"><g transform="translate(45.73137, 17.320662)"><g><path d="M 2.359375 0.046875 C 1.710938 0.046875 1.234375 -0.164062 0.921875 -0.59375 C 0.617188 -1.019531 0.375 -1.609375 0.1875 -2.359375 C -0.0625 -2.117188 -0.234375 -2 -0.328125 -2 C -0.398438 -2 -0.4375 -2.050781 -0.4375 -2.15625 C -0.4375 -2.238281 -0.398438 -2.316406 -0.328125 -2.390625 C -0.328125 -2.390625 -0.15625 -2.597656 0.1875 -3.015625 C 0.539062 -3.441406 1.132812 -4.039062 1.96875 -4.8125 L 4.5625 -7.234375 C 4.914062 -7.578125 5.195312 -7.835938 5.40625 -8.015625 C 5.625 -8.191406 5.78125 -8.28125 5.875 -8.28125 C 6.3125 -8.28125 6.53125 -8.113281 6.53125 -7.78125 C 6.53125 -7.625 6.441406 -7.4375 6.265625 -7.21875 C 6.128906 -7.050781 6.03125 -6.921875 5.96875 -6.828125 C 5.90625 -6.742188 5.867188 -6.691406 5.859375 -6.671875 C 5.609375 -6.253906 5.378906 -5.492188 5.171875 -4.390625 C 5.023438 -3.585938 4.894531 -2.925781 4.78125 -2.40625 C 4.675781 -1.882812 4.585938 -1.507812 4.515625 -1.28125 C 5.097656 -1.289062 5.664062 -1.46875 6.21875 -1.8125 C 6.78125 -2.15625 7.382812 -2.71875 8.03125 -3.5 C 8.0625 -3.519531 8.101562 -3.554688 8.15625 -3.609375 C 8.207031 -3.671875 8.265625 -3.703125 8.328125 -3.703125 C 8.398438 -3.703125 8.4375 -3.664062 8.4375 -3.59375 C 8.4375 -3.53125 8.414062 -3.460938 8.375 -3.390625 C 8.34375 -3.316406 8.304688 -3.253906 8.265625 -3.203125 C 7.835938 -2.691406 7.4375 -2.273438 7.0625 -1.953125 C 6.695312 -1.640625 6.304688 -1.390625 5.890625 -1.203125 C 5.484375 -1.015625 5 -0.859375 4.4375 -0.734375 L 3.78125 -0.3125 C 3.601562 -0.1875 3.390625 -0.09375 3.140625 -0.03125 C 2.898438 0.0195312 2.640625 0.046875 2.359375 0.046875 Z M 2.609375 -1 C 2.921875 -1 3.179688 -1.078125 3.390625 -1.234375 C 3.535156 -1.316406 3.679688 -1.546875 3.828125 -1.921875 C 3.972656 -2.296875 4.113281 -2.765625 4.25 -3.328125 C 4.363281 -3.804688 4.453125 -4.273438 4.515625 -4.734375 C 4.578125 -5.191406 4.632812 -5.632812 4.6875 -6.0625 L 4.765625 -6.765625 C 4.453125 -6.523438 4.054688 -6.1875 3.578125 -5.75 C 3.097656 -5.3125 2.625 -4.851562 2.15625 -4.375 C 1.6875 -3.894531 1.382812 -3.539062 1.25 -3.3125 C 1.113281 -3.09375 1.039062 -2.925781 1.03125 -2.8125 C 0.96875 -2.269531 1.097656 -1.832031 1.421875 -1.5 C 1.742188 -1.164062 2.140625 -1 2.609375 -1 Z M 2.609375 -1 "/></g></g></g></g></g></g></g></g></g></g></svg>